<?xml version="1.0" encoding="utf-8"?>
<!-- Generator: Adobe Illustrator 24.1.1, SVG Export Plug-In . SVG Version: 6.00 Build 0)  -->
<svg version="1.1" id="OBJECTS" xmlns="http://www.w3.org/2000/svg" xmlns:xlink="http://www.w3.org/1999/xlink" x="0px" y="0px"
	 viewBox="0 0 750 500" style="enable-background:new 0 0 750 500;" xml:space="preserve">
<style type="text/css">
	.st0{clip-path:url(#SVGID_2_);fill:#5E47F5;}
	.st1{clip-path:url(#SVGID_2_);fill:#FFFFFF;}
	.st2{clip-path:url(#SVGID_2_);fill:#060089;}
	.st3{clip-path:url(#SVGID_2_);fill:#2F1CC1;}
	.st4{clip-path:url(#SVGID_2_);}
	.st5{fill:#3ABDC1;}
	.st6{fill:#FEC06D;}
	.st7{clip-path:url(#SVGID_2_);fill:#FEC06D;}
	.st8{fill:#F2A446;}
	.st9{fill:#F88987;}
	.st10{fill:#E06161;}
	.st11{fill:#2B90AE;}
	.st12{fill:#F5628B;}
	.st13{fill:#FEB7B7;}
	.st14{clip-path:url(#SVGID_2_);fill:#3ABDC1;}
	.st15{fill:#5E47F5;}
	.st16{fill:#AAA4FF;}
	.st17{fill:#D2D2FF;}
	.st18{fill:#C61A59;}
	.st19{fill:#E55C5C;}
	.st20{fill:#CC6060;}
	.st21{fill:#ED7C7C;}
	.st22{fill:#CC4848;}
	.st23{fill:#FFFFFF;}
	.st24{fill:#342D70;}
	.st25{fill:#1B1851;}
	.st26{fill:#AC2B93;}
	.st27{fill:#841771;}
	.st28{fill:#141C33;}
	.st29{fill:#C13ABF;}
	.st30{fill:#2F1CC1;}
</style>
<g>
	<g>
		<g>
			<defs>
				<rect id="SVGID_1_" x="54.04" y="8.16" width="637.08" height="416.03"/>
			</defs>
			<clipPath id="SVGID_2_">
				<use xlink:href="#SVGID_1_"  style="overflow:visible;"/>
			</clipPath>
			<path class="st0" d="M84.86,210.72c-0.94,41.55,9.8,84.31,39.03,114.24c35.36,36.21,90.45,50.58,138.65,56.43
				c55.13,6.69,110.42,14.65,165.93,10.62c50.95-3.7,107.65-9.86,151.16-40.13c64.77-45.07,87.81-125.31,63.07-200.83
				C608.87,47.77,491.92-3.73,393.62,44.26c-25.57,12.48-42.13,33.05-58.59,55.53c-10.57,14.45-22.41,22.91-40.62,18.56
				c-19.01-4.54-37.31-18.31-55.34-26.1c-40.23-17.36-87.61-12.01-118.69,20.89c-20.95,22.18-32.12,52.72-34.75,83.4
				C85.23,201.24,84.97,205.97,84.86,210.72z"/>
			<path class="st1" d="M607.44,125.66c0.3-3.74-1.29-9-4.54-11.15c-3.16-2.08-6.34,0.02-9.53-0.13
				c0.25-5.57-7.08-12.33-11.38-14.58c-6.31-3.3-14.26-2.99-20.36,0.42c1.8-3.53,1.03-9.33-0.27-12.88
				c-3.91-10.6-15.02-17.13-25.53-18.9c-10.41-1.75-24.2,1.88-30.79,10.84c-4.15,5.65-6.67,12.18-9.6,18.48
				c-1.54-0.75-2.51-1.96-4.34-2.4c-3.78-0.9-7.53,0.55-10.8,2.36c-6.06,3.35-7.23,8.32-9.32,14.42c-5.74-2.41-12.44-1.86-16.98,2.9
				c-1.56,1.63-7.44,8.75-4.69,10.62c0.39,0.26,1.86,0,2.31,0c4.14,0,8.28,0,12.42,0c15.24,0,30.48,0,45.72,0
				c17.93,0,35.86,0,53.78,0c12.71,0,25.42,0,38.13,0C601.95,125.66,607.43,125.74,607.44,125.66z"/>
			<path class="st1" d="M108.99,185.04c0,0,133.38,0,133.85,0c1.11,0-1.05-5.13-1.31-5.64c-1.75-3.49-4.4-7.07-7.8-9.03
				c-4.93-2.85-11.1-2.88-16.08-0.58c5.06-13.53-13.37-27.32-24.59-30.3c-10.83-2.88-26.27,3.94-26.65,16.93
				c-3.27-5.03-14.31-4.08-19.09-2.16c-6.71,2.7-11.23,12.09-12.14,19.15c-5.52-1.62-11.44-4.13-17.34-1.04
				C113.35,174.74,108.98,180.01,108.99,185.04z"/>
			<path class="st2" d="M244.18,429.61c0,0,132.07-218.1,262.62-207.38c130.55,10.72,187.03,210.38,187.03,210.38L244.18,429.61z"/>
			<path class="st3" d="M534,429.47c0,0-132.07-228.1-262.62-216.89C140.84,223.79,84.35,432.61,84.35,432.61L534,429.47z"/>
			<g class="st4">
				<path class="st5" d="M572.35,243.06c0.93-3.99,1.43-8.26,2.92-12.06c0.08-0.2,0.35-0.15,0.36,0.06
					c0.16,3.65-0.06,7.26-0.23,10.92c-0.07,1.43-0.1,2.81-0.28,4.24c-0.29,2.35-0.42,1.92,0.96,3.59c2.58,3.12,5.66,6.01,8.43,8.97
					c2.02,2.17,4.15,5.04,6.42,7.28c0.8-2.47,1.62-4.92,2.47-7.34c1.81-5.15,3.62-9.42,6.75-13.86c2.15-3.05,4.9-3.84,8.48-3.6
					c1.07-1.79,1.91-3.79,3.05-5.55c1.04-1.6,1.96-2.53,1.75-4.33c-0.5-4.3-4.7-7.89-4.86-12.39c0-0.12,0.16-0.12,0.19-0.02
					c0.96,3.08,2.92,5.89,4.23,8.83c0.58,1.3,2.02,3.1,2.1,4.57c0.06,1.02-0.47,2.26-0.8,3.23c-0.67,1.98-1.58,4.16-2.64,6.12
					c3.59,0.82,7.14,2.36,10.83,1.97c6.68-0.7,6.6-8.81,11.49-11.34c0.08-0.04,0.15,0.07,0.09,0.13c-3.45,3.19-4.25,8.85-7.99,11.96
					c-2.27,1.89-5.14,2-7.96,1.69c-2.73-0.31-5.7-1.37-8.51-1.67c-0.31,0.09-0.65,0.05-0.94-0.07c-2.31-0.09-4.46,0.48-6.22,2.61
					c-3.79,4.58-5.24,11.24-6.96,16.88c-0.58,1.91-1.15,3.83-1.73,5.74c-0.03,0.17-0.08,0.34-0.15,0.5c-0.84,2.76-1.68,5.52-2.5,8.3
					c3.42,0.9,6.82,2.34,10.32,2.65c2.96,0.26,2.78-0.13,4.01-2.42c0.95-1.77,1.88-3.5,2.95-5.19c3.33-5.22,7.89-6.1,13.04-8.69
					c0.05-0.03,0.13,0.04,0.09,0.09c-1.36,1.83-3.45,2.91-5.32,4.16c-2.87,1.92-4.2,3.63-5.93,6.65c-1.21,2.11-2.13,4.49-3.46,6.51
					c-1.55,2.36-2.92,2.32-5.62,1.87c-3.7-0.62-7.27-1.9-10.91-2.77c-1.23,4.19-2.44,8.38-3.59,12.58
					c-1.36,4.95-3.11,9.8-4.69,14.69c-1.98,6.13-3.36,12.49-6.02,18.36c-0.66,1.46-2.83,0.87-2.4-0.77
					c2.99-11.52,6.84-22.82,9.88-34.3c1.94-7.32,4.05-14.74,6.34-22.05c-2.84-2.4-5.43-5.87-7.88-8.49
					c-3.06-3.26-7.55-6.83-9.83-10.68C570.66,248.24,571.75,245.62,572.35,243.06z"/>
				<path class="st6" d="M571.34,226.54c2.1-2.89,6.35-3.59,8.8-0.73c2.32,2.7,1.26,6.52-1.39,8.44c-1.86,1.57-4.77,1.81-6.75,0.31
					C569.58,232.72,569.66,228.84,571.34,226.54z"/>
				<path class="st6" d="M606.61,214.11c0.81-0.68,1.8-1.1,2.9-1.02c3.03,0.22,4.92,4.09,3.98,6.86c-0.52,1.54-1.6,2.99-3.19,3.46
					c-1.04,0.31-2.05,0.18-2.94-0.26c-0.5-0.1-1-0.31-1.48-0.64c-0.83-0.56-1.31-1.37-1.52-2.24c-0.02-0.06-0.05-0.11-0.07-0.17
					C603.72,218.07,604.81,215.33,606.61,214.11z"/>
				<path class="st6" d="M634.19,226.12c0.22-0.1,0.44-0.18,0.67-0.25c1.74-0.69,3.52-0.1,4.68,1.27c0.82,0.8,1.43,1.87,1.68,3.08
					c0.6,2.89-1.44,5.62-4.12,5.94c-2.32,0.67-4.86-0.71-5.73-3.08c-0.2-0.53-0.29-1.07-0.3-1.61
					C630.87,229.28,632.08,227.09,634.19,226.12z"/>
				<path class="st6" d="M618.25,261.93c0.22-0.41,0.49-0.79,0.8-1.13c0.09-0.15,0.18-0.3,0.28-0.45c0.83-1.14,2.06-1.9,3.36-1.95
					c0.94-0.25,1.94-0.4,2.89-0.17c1.08,0.27,1.57,0.85,2.09,1.62c0.14,0.13,0.28,0.26,0.41,0.4c1.48,1.63,2.23,4.12,1.14,6.16
					c-0.86,1.61-2.58,2.98-4.37,3.3c-0.19,0.03-0.37,0.04-0.55,0.05c-0.92,0.43-1.94,0.59-2.96,0.31
					C618.17,269.21,616.7,264.77,618.25,261.93z"/>
			</g>
			<g class="st4">
				<path class="st5" d="M129.14,283c-2.45-2.44-4.71-5.29-7.47-7.33c-0.15-0.11-0.32,0.05-0.23,0.21c1.51,2.71,3.27,5.2,5.03,7.75
					c0.69,1,1.32,1.98,2.09,2.93c1.25,1.56,1.16,1.18,0.91,3.03c-0.47,3.44-1.4,6.95-2.07,10.36c-0.49,2.5-0.74,5.55-1.38,8.21
					c-1.67-1.4-3.36-2.79-5.05-4.14c-3.59-2.86-6.8-5.1-11.02-6.85c-2.9-1.2-5.23-0.49-7.7,1.34c-1.57-0.8-3.06-1.84-4.66-2.58
					c-1.46-0.67-2.54-0.91-3.19-2.31c-1.55-3.33-0.13-7.86-2.02-11.17c-0.05-0.09-0.17-0.01-0.15,0.08
					c0.68,2.66,0.52,5.59,0.89,8.32c0.16,1.2-0.07,3.16,0.52,4.26c0.41,0.76,1.35,1.4,2.01,1.95c1.36,1.12,2.99,2.26,4.63,3.18
					c-2.22,2.25-4.08,5-6.92,6.44c-5.12,2.59-8.67-3.29-13.31-2.84c-0.07,0.01-0.08,0.12-0.01,0.13c3.9,0.69,7,4.4,11.08,4.91
					c2.48,0.31,4.59-0.94,6.48-2.47c1.82-1.48,3.49-3.63,5.38-5.14c0.26-0.08,0.49-0.26,0.65-0.49c1.62-1.13,3.42-1.72,5.64-1.01
					c4.76,1.54,8.78,5.66,12.52,8.92c1.27,1.1,2.53,2.22,3.8,3.33c0.1,0.11,0.21,0.21,0.33,0.29c1.83,1.6,3.67,3.2,5.5,4.81
					c-2.06,2.23-3.87,4.84-6.25,6.68c-2.01,1.56-2.05,1.2-3.96,0.11c-1.47-0.83-2.91-1.65-4.44-2.37c-4.72-2.22-8.4-0.74-13.25-0.21
					c-0.05,0.01-0.08,0.09-0.02,0.11c1.8,0.68,3.78,0.49,5.68,0.53c2.92,0.05,4.64,0.67,7.23,2.04c1.81,0.96,3.53,2.24,5.39,3.08
					c2.16,0.98,3.13,0.32,4.88-1.26c2.39-2.16,4.38-4.73,6.62-7.05c2.75,2.44,5.49,4.9,8.19,7.39c3.18,2.93,6.6,5.61,9.91,8.4
					c4.15,3.49,7.98,7.43,12.51,10.42c1.13,0.75,2.42-0.68,1.38-1.67c-7.28-6.91-15.08-13.25-22.38-20.1
					c-4.66-4.37-9.48-8.73-14.38-12.93c0.98-3.04,1.29-6.74,1.89-9.76c0.75-3.76,2.39-8.41,2.32-12.24
					C132.66,285.94,130.71,284.56,129.14,283z"/>
				<path class="st6" d="M122.51,270.64c-2.8-1.11-6.17,0.35-6.66,3.55c-0.47,3.02,2,5.28,4.76,5.43c2.04,0.27,4.24-0.9,5-2.91
					C126.53,274.28,124.74,271.52,122.51,270.64z"/>
				<path class="st6" d="M91.6,278.03c-0.89-0.12-1.78,0.04-2.54,0.61c-2.08,1.56-1.72,5.22,0.19,6.78
					c1.06,0.87,2.48,1.41,3.83,1.01c0.88-0.26,1.55-0.82,2-1.55c0.31-0.31,0.58-0.68,0.78-1.15c0.34-0.79,0.33-1.59,0.1-2.32
					c-0.01-0.05-0.02-0.1-0.03-0.16C95.44,279.55,93.44,278.08,91.6,278.03z"/>
				<path class="st6" d="M77.1,299.44c-0.21,0.03-0.4,0.08-0.59,0.13c-1.56,0.31-2.58,1.55-2.8,3.08c-0.23,0.96-0.19,2.01,0.16,2.99
					c0.86,2.36,3.54,3.37,5.61,2.36c1.97-0.59,3.18-2.76,2.76-4.87c-0.1-0.47-0.27-0.91-0.5-1.3
					C80.89,300.19,79.04,299.17,77.1,299.44z"/>
				<path class="st6" d="M104.51,317.83c-0.34-0.19-0.71-0.34-1.08-0.44c-0.13-0.07-0.26-0.14-0.4-0.19
					c-1.1-0.44-2.33-0.41-3.29,0.15c-0.79,0.25-1.58,0.61-2.16,1.22c-0.66,0.69-0.75,1.34-0.79,2.13c-0.04,0.16-0.09,0.31-0.12,0.48
					c-0.34,1.86,0.22,4,1.92,4.96c1.34,0.76,3.18,0.95,4.61,0.35c0.15-0.06,0.28-0.14,0.42-0.22c0.86-0.11,1.66-0.47,2.27-1.15
					C107.81,323.04,106.89,319.16,104.51,317.83z"/>
			</g>
			<path class="st7" d="M75.44,394.77c-2.98-12.04,5.66-30.08,19.66-25.19c4.37-26.09,34.15-39.13,57.29-31.65
				c27.76,8.97,35.58,35.19,37.47,62.35c0.56,8.12,0.64,16.21,0.63,24.42c-20.32,0-40.64,0-60.96,0c-13.18,0-26.36,0-39.55,0
				c-4.5,0-10.27,1-14.63,0.26c-8.54-1.45-8.87-12.21-6.62-19.85C69.2,403.5,75.45,394.81,75.44,394.77z"/>
			<path class="st7" d="M392.47,394.7c-2.97-11.98,5.63-29.93,19.56-25.07c4.35-25.96,33.98-38.95,57.01-31.5
				c27.62,8.93,35.41,35.03,37.29,62.06c0.56,8.08,0.63,16.14,0.63,24.3c-20.22,0-40.44,0-60.67,0c-13.12,0-26.24,0-39.36,0
				c-4.48,0-10.22,1-14.56,0.26c-8.5-1.45-8.83-12.16-6.59-19.76C386.25,403.39,392.48,394.74,392.47,394.7z"/>
			<g class="st4">
				<path class="st6" d="M312.99,210.92c1.61,0.82,3.11,1.89,4.54,3.03c1.47,1.13,2.85,2.39,4.15,3.75c2.59,2.71,5.02,5.74,6.99,9.1
					c4.11,6.66,6.8,14.47,8,22.55c0.22,2.01,0.59,4.08,0.6,6.1l0.08,3.06c0.01,1.01,0.06,2.09,0,3.04
					c-0.11,3.94-0.39,7.73-0.77,11.38c-0.7,7.34-1.75,14.14-2.62,20.49c-0.83,6.35-1.42,12.31-1.23,17.83
					c0.06,2.77,0.28,5.41,0.68,7.96c0.35,2.56,0.96,4.98,1.64,7.35c1.4,4.73,3.46,9.16,6.14,13.47c2.62,4.33,5.92,8.48,9.64,12.56
					l-33.97,28.95c-4.95-6.51-9.38-13.77-13-21.68l-1.31-2.99l-1.19-3.08c-0.82-2.02-1.44-4.18-2.13-6.27
					c-1.2-4.28-2.25-8.61-2.83-13.03c-0.64-4.39-0.94-8.82-0.9-13.15c0.01-4.34,0.29-8.61,0.87-12.71
					c1.11-8.25,3.05-15.9,5.31-22.96c2.22-7.08,4.89-13.55,7.41-19.6c1.23-3.04,2.44-5.98,3.45-8.85l1.4-4.15l0.36-1.05l0.27-1.05
					l0.59-2.12c1.51-5.68,2.46-11.78,2.15-18.17c-0.08-3.22-0.53-6.46-1.2-9.79C315.39,217.6,314.48,214.21,312.99,210.92z"/>
				<path class="st8" d="M312.99,210.92c2.34,2.49,4.25,5.37,5.93,8.36c1.64,3.01,3.09,6.15,4.13,9.44c2.23,6.53,3.13,13.49,3,20.39
					l-0.1,2.59l-0.05,1.3l-0.15,1.29c-0.22,1.71-0.36,3.44-0.64,5.14c-0.55,3.41-1.29,6.78-2.08,10.14
					c-1.59,6.71-3.43,13.35-4.95,20.06c-1.52,6.71-2.76,13.5-3.19,20.36c-0.25,3.43-0.26,6.87-0.06,10.29
					c0.17,3.43,0.63,6.83,1.3,10.19c0.62,3.37,1.64,6.65,2.73,9.89c0.64,1.59,1.17,3.22,1.9,4.76l1.04,2.34l1.16,2.28
					c3.12,6.07,6.98,11.74,11.32,16.98l-0.84,0.72c-4.34-5.33-8.21-11.08-11.33-17.25l-1.16-2.32l-1.04-2.38
					c-0.73-1.57-1.26-3.22-1.9-4.83c-1.08-3.29-2.09-6.61-2.69-10.03c-0.65-3.4-1.1-6.85-1.25-10.31
					c-0.18-3.46-0.14-6.93,0.13-10.38c0.49-6.91,1.78-13.72,3.34-20.43c1.57-6.72,3.45-13.35,5.09-20.03
					c0.82-3.34,1.57-6.7,2.14-10.09c0.29-1.7,0.45-3.41,0.67-5.11l0.15-1.28l0.06-1.29l0.12-2.58c0.17-6.87-0.67-13.81-2.86-20.33
					c-1.01-3.29-2.44-6.43-4.06-9.45C317.2,216.32,315.31,213.43,312.99,210.92z"/>
			</g>
			<g class="st4">
				<path class="st6" d="M534.02,171.04c1.61,0.82,3.11,1.89,4.54,3.03c1.47,1.13,2.85,2.39,4.15,3.75c2.59,2.71,5.02,5.74,6.99,9.1
					c4.11,6.66,6.8,14.47,8,22.55c0.22,2.01,0.59,4.08,0.6,6.1l0.08,3.06c0.01,1.01,0.06,2.09,0,3.04
					c-0.11,3.94-0.39,7.73-0.77,11.38c-0.7,7.34-1.75,14.14-2.62,20.49c-0.83,6.35-1.42,12.31-1.23,17.83
					c0.06,2.77,0.28,5.41,0.68,7.96c0.35,2.56,0.96,4.98,1.64,7.35c1.4,4.73,3.46,9.16,6.14,13.47c2.62,4.33,5.92,8.48,9.64,12.56
					l-33.97,28.95c-4.95-6.51-9.38-13.77-13-21.68l-1.31-2.99l-1.19-3.08c-0.82-2.02-1.44-4.18-2.13-6.27
					c-1.2-4.28-2.25-8.61-2.83-13.03c-0.64-4.39-0.94-8.82-0.9-13.15c0.01-4.34,0.29-8.61,0.87-12.71
					c1.11-8.25,3.05-15.9,5.31-22.96c2.22-7.08,4.89-13.55,7.41-19.6c1.23-3.04,2.44-5.98,3.45-8.85l1.4-4.15l0.36-1.05l0.27-1.05
					l0.59-2.12c1.51-5.68,2.46-11.78,2.15-18.17c-0.08-3.22-0.53-6.46-1.2-9.79C536.42,177.72,535.51,174.33,534.02,171.04z"/>
				<path class="st8" d="M534.02,171.04c2.34,2.49,4.25,5.37,5.93,8.36c1.64,3.01,3.09,6.15,4.13,9.44c2.23,6.53,3.13,13.49,3,20.39
					l-0.1,2.59l-0.05,1.3l-0.15,1.29c-0.22,1.71-0.36,3.44-0.64,5.14c-0.55,3.41-1.29,6.78-2.08,10.14
					c-1.59,6.71-3.43,13.35-4.95,20.06c-1.52,6.71-2.76,13.5-3.19,20.36c-0.25,3.43-0.26,6.87-0.06,10.29
					c0.17,3.43,0.63,6.83,1.3,10.19c0.62,3.37,1.64,6.65,2.73,9.89c0.64,1.59,1.17,3.22,1.9,4.76l1.04,2.34l1.16,2.28
					c3.12,6.07,6.98,11.74,11.32,16.98l-0.84,0.72c-4.34-5.33-8.21-11.08-11.33-17.25l-1.16-2.32l-1.04-2.38
					c-0.73-1.57-1.26-3.22-1.9-4.83c-1.08-3.29-2.09-6.61-2.69-10.03c-0.65-3.4-1.1-6.85-1.25-10.31
					c-0.18-3.46-0.14-6.93,0.13-10.38c0.49-6.91,1.78-13.72,3.34-20.43c1.57-6.72,3.45-13.35,5.09-20.03
					c0.82-3.34,1.57-6.7,2.14-10.09c0.29-1.7,0.45-3.41,0.67-5.11l0.15-1.28l0.06-1.29l0.12-2.58c0.17-6.87-0.67-13.81-2.86-20.33
					c-1.01-3.29-2.44-6.43-4.06-9.45C538.24,176.44,536.34,173.55,534.02,171.04z"/>
			</g>
			<g class="st4">
				<path class="st9" d="M207.34,203.92c4.91,4.03,9.82,8.02,14.69,12.12c5.26,4.66,9.62,11.08,11.82,18.58
					c1.13,3.73,1.8,7.7,1.93,11.79c0.09,4.08-0.37,8.26-1.39,12.39c-0.28,1.02-0.51,2.08-0.87,3.09l-1.09,3.05
					c-0.42,0.99-0.87,1.98-1.32,2.97l-0.35,0.75c-0.07,0.19-0.1,0.3-0.15,0.45l-0.26,0.84c-0.38,1.09-0.62,2.24-0.92,3.32
					c-0.19,1.13-0.45,2.2-0.54,3.32c-0.16,1.09-0.21,2.19-0.29,3.24c0.02,1.09-0.07,2.12,0.02,3.18c0.01,1.04,0.17,2.08,0.25,3.08
					c0.19,1.01,0.3,2,0.57,2.97c0.19,0.97,0.54,1.91,0.79,2.83c0.38,0.91,0.66,1.81,1.08,2.67c0.34,0.87,0.84,1.69,1.25,2.5
					c0.52,0.78,0.93,1.57,1.5,2.29l0.39,0.55l0.19,0.27l0.3,0.5l1.21,2.03l2.42,4.06l4.8,8.13c1.61,2.71,3.15,5.45,4.72,8.17
					c1.57,2.72,3.13,5.45,4.65,8.2l-47.92,21.09c-0.92-3.01-1.79-6.04-2.66-9.08c-0.86-3.04-1.76-6.05-2.59-9.11l-5.2-19.05
					c-4.8-17.53-2.37-36.23,6-50.63c1.01-1.82,2.22-3.51,3.37-5.2c1.26-1.63,2.45-3.27,3.85-4.73l1.02-1.11l0.49-0.53l0.29-0.24
					l1.19-0.97l1.11-1.09c0.4-0.36,0.69-0.79,1.06-1.18c1.37-1.64,2.58-3.55,3.52-5.68c0.9-2.14,1.55-4.48,1.87-6.96
					c0.33-2.48,0.32-5.1-0.12-7.72c-0.41-2.63-1.16-5.31-2.33-7.9L207.34,203.92z"/>
				<path class="st10" d="M207.34,203.92l11.59,14.64c3.8,4.93,6.43,10.87,7.21,17.13c0.42,3.12,0.44,6.29,0.06,9.42
					c-0.42,3.12-1.24,6.19-2.43,9.1c-0.32,0.72-0.58,1.46-0.96,2.15l-1.1,2.08l-2.53,3.95c-0.88,1.28-1.59,2.67-2.36,4.01
					c-0.66,1.41-1.38,2.78-1.93,4.24c-4.7,11.52-4.8,24.87-0.29,36.44c4.8,11.51,9.8,23,14.68,34.5l-1.01,0.44
					c-4.81-11.55-9.71-23.03-14.44-34.64c-4.51-11.8-4.29-25.34,0.55-36.96c0.56-1.47,1.3-2.86,1.98-4.27
					c0.79-1.36,1.51-2.75,2.41-4.03l2.54-3.91l1.1-2.05c0.38-0.68,0.64-1.41,0.97-2.12c1.2-2.86,2.04-5.89,2.47-8.98
					c0.4-3.09,0.4-6.24,0-9.33c-0.73-6.21-3.3-12.14-7.05-17.08L207.34,203.92z"/>
			</g>
			<g class="st4">
				<path class="st9" d="M438.82,224.46c5.99,2,11.97,3.95,17.95,6.02c6.54,2.45,12.84,6.88,17.51,13.1
					c2.36,3.08,4.36,6.55,5.9,10.33c1.5,3.78,2.53,7.86,3.01,12.09c0.09,1.06,0.25,2.13,0.26,3.2l0.04,3.24
					c-0.05,1.08-0.13,2.16-0.21,3.26l-0.06,0.82c0,0.2,0.01,0.31,0.02,0.47l0.05,0.88c0.03,1.16,0.2,2.32,0.3,3.43
					c0.22,1.13,0.34,2.22,0.65,3.3c0.23,1.07,0.57,2.12,0.85,3.14c0.4,1.01,0.67,2.01,1.13,2.97c0.37,0.97,0.88,1.88,1.3,2.79
					c0.53,0.88,0.97,1.76,1.57,2.57c0.51,0.84,1.17,1.59,1.73,2.36c0.67,0.71,1.24,1.46,1.94,2.1c0.62,0.69,1.37,1.27,2.03,1.89
					c0.76,0.54,1.41,1.14,2.2,1.6l0.55,0.37l0.27,0.19l0.46,0.36l1.84,1.46l3.68,2.92l7.32,5.87c2.45,1.95,4.83,3.95,7.25,5.93
					c2.42,1.98,4.82,3.96,7.2,5.98l-37.48,37.05c-1.91-2.48-3.78-5-5.64-7.53c-1.86-2.53-3.75-5.03-5.58-7.58l-11.48-15.94
					c-10.58-14.65-14.81-33.02-11.99-49.51c0.31-2.06,0.85-4.08,1.34-6.08c0.61-1.98,1.16-3.94,1.96-5.82l0.56-1.41l0.28-0.67
					l0.18-0.33l0.78-1.34l0.66-1.42c0.25-0.48,0.37-0.98,0.58-1.49c0.71-2.03,1.17-4.25,1.31-6.58c0.1-2.32-0.11-4.75-0.67-7.19
					c-0.55-2.44-1.47-4.88-2.79-7.18c-1.3-2.31-2.93-4.55-4.93-6.55L438.82,224.46z"/>
				<path class="st10" d="M438.82,224.46l15.92,9.5c5.27,3.24,9.79,7.84,12.7,13.4c1.47,2.76,2.6,5.72,3.33,8.78
					c0.7,3.07,0.99,6.23,0.89,9.38c-0.05,0.79-0.04,1.58-0.15,2.36l-0.3,2.35l-0.99,4.6c-0.38,1.51-0.56,3.07-0.81,4.6
					c-0.13,1.55-0.33,3.1-0.33,4.66c-0.39,12.48,4.15,25,12.4,34.17c8.49,9.03,17.15,17.96,25.72,26.95l-0.79,0.78
					c-8.51-9.06-17.08-18.03-25.55-27.17c-8.32-9.4-12.82-22.14-12.33-34.75c0.01-1.58,0.22-3.14,0.36-4.71
					c0.27-1.55,0.46-3.12,0.85-4.64l1.02-4.58l0.32-2.31c0.12-0.77,0.11-1.55,0.17-2.33c0.12-3.11-0.14-6.24-0.81-9.29
					c-0.71-3.04-1.8-5.98-3.24-8.73c-2.85-5.54-7.31-10.15-12.53-13.42L438.82,224.46z"/>
			</g>
			<g class="st4">
				<path class="st5" d="M280.13,173.08c1,1.63,1.91,3.29,2.85,4.94l2.68,4.98c0.86,1.67,1.73,3.33,2.56,5.01
					c0.83,1.68,1.67,3.29,2.46,5.21c3.21,7.38,5.47,15.61,5.8,24.14c0.23,4.27-0.13,8.55-0.72,12.84
					c-0.72,4.25-1.63,8.55-3.01,12.71c-1.28,4.22-3.06,8.28-5.01,12.3c-2.07,3.95-4.36,7.84-7.08,11.45l-1.01,1.37l-0.51,0.68
					l-0.26,0.34c-0.06,0.09-0.07,0.13-0.11,0.19c-0.24,0.47-0.51,0.9-0.74,1.35l-0.62,1.38l-0.51,1.4c-0.6,1.87-0.89,3.78-0.93,5.62
					c-0.09,3.7,1.02,7.1,2.72,9.74l0.34,0.49l0.16,0.24l0.08,0.14l0.16,0.3l1.28,2.43l2.56,4.86l5.05,9.75
					c3.36,6.5,6.75,12.99,10.01,19.53l-48.48,19.72c-2.05-7.03-3.97-14.12-5.92-21.2l-2.91-10.62l-1.42-5.32l-1.8-6.64
					c-2.79-11.25-2.08-23.07,1.58-33.48c1.82-5.22,4.4-10.09,7.57-14.44c0.8-1.08,1.65-2.12,2.48-3.16
					c0.87-1.01,1.79-1.98,2.69-2.94c0.93-0.94,1.91-1.82,2.87-2.71l0.35-0.31l0.2-0.16l0.4-0.32l0.82-0.65
					c8.84-6.83,15.61-17.12,19.16-29.17c1.03-3,1.77-6.13,2.5-9.38l0.42-2.46l0.21-1.25l0.13-1.25l0.27-2.54
					c0.07-0.85,0.08-1.7,0.12-2.57c0.1-1.67,0.06-3.61,0.05-5.48c-0.02-1.88,0.01-3.76,0.03-5.65l0.15-5.68
					C279.91,176.9,279.98,175,280.13,173.08z"/>
				<path class="st11" d="M280.13,173.08c1.7,7.1,3.52,14.17,5.12,21.3c0.18,0.9,0.39,1.79,0.54,2.69l0.39,2.72l0.2,1.36l0.11,1.37
					l0.22,2.74c0.14,3.66,0.13,7.33-0.3,10.98c-0.1,0.91-0.18,1.82-0.31,2.73l-0.46,2.71l-0.23,1.35l-0.31,1.34l-0.63,2.67
					c-1.01,3.52-2.14,7.01-3.67,10.34c-1.42,3.37-3.26,6.54-5.18,9.65c-2.04,3.02-4.19,5.98-6.66,8.65
					c-1.22,1.36-2.44,2.68-3.61,4.04c-0.54,0.72-1.11,1.41-1.63,2.14c-0.49,0.75-1,1.49-1.48,2.26c-1.86,3.08-3.27,6.44-4.19,9.94
					c-1.84,6.99-1.62,14.51,0.61,21.37c0.57,1.7,1.24,3.4,1.91,5.09l2,5.09l4.01,10.17l8.02,20.34l-1.02,0.41l-7.91-20.39
					l-3.96-10.19l-1.98-5.1c-0.67-1.69-1.32-3.39-1.91-5.15c-2.26-7.03-2.44-14.73-0.52-21.85c0.95-3.56,2.41-6.98,4.32-10.12
					c0.48-0.78,1.01-1.53,1.52-2.29c0.54-0.74,1.12-1.45,1.67-2.18c1.2-1.38,2.44-2.72,3.65-4.04c2.46-2.63,4.6-5.56,6.64-8.54
					c1.91-3.07,3.75-6.2,5.18-9.54c1.53-3.29,2.67-6.75,3.69-10.24c0.88-3.52,1.68-7.09,2.02-10.72c0.45-3.62,0.49-7.27,0.39-10.91
					l-0.2-2.73l-0.1-1.36l-0.18-1.35l-0.37-2.71c-0.14-0.9-0.35-1.79-0.52-2.68C283.49,187.3,281.76,180.2,280.13,173.08z"/>
			</g>
			<g class="st4">
				<path class="st12" d="M158.79,425.23c-18.53-6.46-7.52-26.69-7.52-26.69c-16.12-18.83,3.01-35.12,3.01-35.12
					c-24.96-19.95-3.01-51.14-3.01-51.14c-7.64-4.5-12.25-20.23-5.09-33.58c7.16-13.35-1.65-27.19-1.65-27.19
					s31.13-4.14,45.46,28.46c0,0,28.38-9.7,31.13,24.94c0,0,21.77,1.2,23.14,27.05c0,0,19.29,0,19.29,24.45
					c0,0,20.94,2.9,16.26,31.8c0,0,24.52,9.51,13.5,37.05H158.79z"/>
				<path class="st13" d="M229,419.69c-6.54-13.23-12.87-26.7-19.21-40.11c1.92-4.41,3.79-8.83,5.66-13.26
					c2.14-5.04,4.21-10.11,6.3-15.18c2.06-5.08,4.1-10.16,6.09-15.27c1.98-5.11,3.96-10.23,5.81-15.4
					c-2.47,4.89-4.82,9.84-7.15,14.8c-2.33,4.96-4.61,9.94-6.87,14.93c-2.23,5-4.48,9.99-6.66,15.02c-1.59,3.67-3.18,7.33-4.75,11
					l-5.33-11.36c1.9-4.1,3.78-8.21,5.62-12.35c2.11-4.64,4.13-9.33,6.18-14.01c4.02-9.39,7.99-18.79,11.61-28.37
					c-4.85,8.99-9.33,18.16-13.77,27.35c-2.18,4.61-4.39,9.21-6.5,13.85c-1.58,3.4-3.14,6.82-4.68,10.24l-7.39-15.76l1.7-6.2
					l1.97-7.51c1.34-5,2.56-10.03,3.81-15.06c1.2-5.04,2.4-10.08,3.5-15.14c0.56-2.53,1.07-5.07,1.59-7.61l0.71-3.83
					c0.11-0.64,0.21-1.28,0.31-1.92c0.07-0.64,0.23-1.29,0.17-1.94c-0.02,0.64-0.25,1.26-0.4,1.89l-0.54,1.86l-1.1,3.72l-2.2,7.44
					l-4.33,14.9c-1.38,4.98-2.82,9.95-4.16,14.95l-2.05,7.48l-0.82,3.08l-1.68-3.58l-5.5-11.84l7.33-43.79l-9.22,39.73l-5.82-12.53
					c0.38-3.21,0.71-6.43,1.03-9.66c0.36-3.34,0.6-6.69,0.89-10.04c0.24-3.35,0.48-6.71,0.65-10.07c0.17-3.36,0.32-6.72,0.34-10.1
					c-0.7,3.3-1.27,6.62-1.82,9.94c-0.55,3.32-1.03,6.65-1.5,9.97c-0.43,3.33-0.9,6.66-1.27,10c-0.2,1.7-0.4,3.39-0.58,5.09
					l-7.94-17.08l0.26-1.05c0.48-1.93,0.92-3.87,1.32-5.82c0.41-1.95,0.77-3.91,1.13-5.87c0.34-1.96,0.65-3.93,0.92-5.92
					c0.25-1.98,0.5-3.97,0.61-5.99c-0.77,1.86-1.41,3.75-2.05,5.65c-0.62,1.9-1.19,3.81-1.74,5.72c-0.53,1.92-1.05,3.84-1.53,5.77
					c-0.29,1.14-0.55,2.28-0.81,3.42l-12.66-27.24c-0.12-0.26-0.42-0.37-0.67-0.26c-0.26,0.12-0.38,0.43-0.26,0.69l11.2,25.97
					c-0.08-0.05-0.16-0.1-0.25-0.14c-1.4-0.82-2.82-1.61-4.25-2.38c-1.42-0.78-2.87-1.51-4.33-2.24c-1.46-0.71-2.93-1.41-4.45-2.04
					c1.23,1.1,2.5,2.12,3.79,3.13c1.29,1,2.58,1.99,3.91,2.93c1.32,0.96,2.64,1.89,3.99,2.79c1.13,0.79,2.29,1.54,3.45,2.29
					l8.69,20.15c-1.37-0.58-2.73-1.17-4.11-1.73c-2.39-1.01-4.81-1.96-7.22-2.91c-2.42-0.95-4.85-1.87-7.29-2.77
					c-2.44-0.89-4.89-1.76-7.37-2.56c2.27,1.29,4.57,2.52,6.88,3.72c2.31,1.2,4.63,2.37,6.97,3.51c2.34,1.14,4.67,2.28,7.03,3.37
					c2.22,1.05,4.45,2.07,6.69,3.07l12.35,28.62l1.49,3.41c-2.04-1.07-4.08-2.14-6.12-3.2c-3.44-1.81-6.9-3.55-10.37-5.31
					c-3.47-1.75-6.94-3.48-10.44-5.18c-3.49-1.7-7-3.37-10.54-4.99c3.3,2.08,6.62,4.09,9.97,6.08c3.34,1.99,6.7,3.95,10.07,5.89
					c3.37,1.93,6.74,3.87,10.14,5.75c3.01,1.69,6.02,3.37,9.05,5.02l7.33,16.85c-2.59-0.23-5.17-0.44-7.76-0.66
					c-3.66-0.32-7.32-0.56-10.98-0.83c-3.66-0.24-7.33-0.49-11-0.68c-3.67-0.2-7.34-0.37-11.02-0.47c3.63,0.61,7.26,1.17,10.9,1.68
					c3.64,0.53,7.28,1,10.92,1.48c3.65,0.44,7.29,0.93,10.94,1.33c3.08,0.35,6.16,0.7,9.25,1.03l5.46,12.55
					c-3.41,0.15-6.82,0.32-10.23,0.51c-4.45,0.23-8.9,0.5-13.35,0.79c-4.45,0.27-8.9,0.61-13.34,0.95
					c-4.45,0.35-8.89,0.73-13.33,1.19c4.46,0.1,8.92,0.11,13.38,0.1c4.46-0.02,8.92-0.05,13.37-0.14c4.46-0.07,8.91-0.17,13.37-0.3
					c3.78-0.09,7.55-0.22,11.33-0.36c2.78,6.33,5.55,12.66,8.35,18.99l-57.02-1.22l58.26,4c2.71,6.11,5.45,12.21,8.26,18.31
					c0.01,0.02,0.03,0.06,0.04,0.08c0.75,1.52,2.56,2.13,4.05,1.36c1.49-0.77,2.08-2.62,1.33-4.13L229,419.69z"/>
			</g>
			<path class="st14" d="M400.79,425.82c-1.05-19.28-10.61-37.86-31.52-31.2c-1.09-17.29-14.24-36.39-34.35-29.07
				c-7.01-14.75-31.14-19.21-44.71-12.9c-12.98,6.03-17.86,19.36-18.41,32.69c-0.63,15.21-0.63,34.37,15.84,39.79
				c13.19,4.34,30.39,0.7,44.17,0.7C354.8,425.82,377.8,425.82,400.79,425.82z"/>
			<g class="st4">
				<path class="st15" d="M315.82,427.27c14.86-5.13,6.03-21.18,6.03-21.18c12.93-14.94-2.42-27.87-2.42-27.87
					c20.02-15.83,2.42-40.57,2.42-40.57c6.12-3.57,9.83-16.05,4.08-26.64c-5.75-10.59,1.33-21.57,1.33-21.57
					s-24.97-3.28-36.46,22.57c0,0-22.76-7.69-24.97,19.78c0,0-17.46,0.95-18.56,21.46c0,0-15.47,0-15.47,19.39
					c0,0-16.79,2.3-13.04,25.23c0,0-19.67,7.54-10.83,29.39H315.82z"/>
				<path class="st16" d="M313.15,371.5l-31.7,7.52l2.06-4.73c2.28-1.25,28.82-13.12,31.31-14.69
					c-2.67,1.22-28.44,10.81-29.97,11.62l1.12-2.57l4.27-9.9l26.39-12.06l-24.91,8.62l3.55-8.24c1.69-0.75,20.88-10.39,22.6-11.36
					c-1.87,0.6-20.36,8.15-21.4,8.58l6.56-15.2c0.88-0.56,1.75-1.13,2.6-1.72c1.02-0.68,2.02-1.39,3.01-2.11
					c1-0.71,1.98-1.46,2.95-2.21c0.97-0.76,1.93-1.53,2.86-2.36c-1.14,0.47-2.25,1-3.36,1.54c-1.1,0.55-2.19,1.1-3.27,1.69
					c-1.08,0.58-2.15,1.17-3.2,1.79c-0.06,0.04-0.12,0.07-0.19,0.11l8.45-19.59c0.09-0.2,0-0.43-0.2-0.52
					c-0.19-0.09-0.42,0-0.51,0.19l-9.55,20.55c-0.2-0.86-0.4-1.72-0.61-2.58c-0.36-1.46-0.76-2.9-1.16-4.35
					c-0.42-1.44-0.84-2.88-1.31-4.31c-0.48-1.43-0.96-2.86-1.54-4.26c0.09,1.52,0.27,3.02,0.46,4.52c0.2,1.49,0.44,2.98,0.69,4.46
					c0.27,1.48,0.54,2.96,0.85,4.42c0.3,1.47,0.64,2.93,0.99,4.39l0.2,0.79l-5.99,12.88c-0.14-1.28-0.29-2.56-0.44-3.84
					c-0.27-2.52-0.63-5.03-0.95-7.54c-0.36-2.51-0.72-5.02-1.13-7.52c-0.42-2.5-0.84-5-1.37-7.49c0.01,2.55,0.13,5.08,0.25,7.62
					c0.13,2.54,0.31,5.06,0.49,7.59c0.22,2.52,0.4,5.05,0.67,7.57c0.24,2.43,0.49,4.86,0.78,7.28l-4.39,9.45l-6.95-29.96l5.53,33.03
					l-4.15,8.93l-1.27,2.7l-0.61-2.32l-1.54-5.65c-1.01-3.77-2.1-7.52-3.14-11.28l-3.27-11.24l-1.66-5.61l-0.83-2.81l-0.4-1.41
					c-0.11-0.47-0.29-0.94-0.3-1.42c-0.05,0.49,0.07,0.98,0.13,1.46c0.07,0.48,0.15,0.97,0.23,1.45l0.54,2.89
					c0.39,1.92,0.77,3.84,1.2,5.74c0.83,3.82,1.73,7.62,2.64,11.42c0.95,3.79,1.87,7.58,2.88,11.36l1.49,5.66l1.28,4.68l-5.57,11.89
					c-1.16-2.58-2.33-5.16-3.53-7.73c-1.6-3.5-3.26-6.97-4.91-10.45c-3.35-6.93-6.73-13.84-10.39-20.63
					c2.72,7.23,5.72,14.32,8.75,21.4c1.55,3.53,3.07,7.06,4.66,10.57c1.39,3.12,2.81,6.22,4.24,9.31l-4.02,8.57
					c-1.19-2.77-2.39-5.53-3.59-8.3c-1.64-3.79-3.34-7.56-5.03-11.33c-1.71-3.76-3.42-7.52-5.18-11.26
					c-1.76-3.74-3.53-7.47-5.4-11.16c1.39,3.9,2.89,7.76,4.38,11.62c1.5,3.85,3.04,7.69,4.6,11.52c1.57,3.82,3.14,7.65,4.75,11.45
					c1.42,3.34,2.83,6.68,4.27,10c-0.91,1.93-1.82,3.86-2.73,5.79l-26.16-41.21l24.29,45.17c-0.88,1.86-1.76,3.72-2.65,5.58
					l-13.08-16.24l-7.44-9.09l-3.77-4.5c-1.28-1.48-2.51-3.02-3.94-4.35c1.32,1.44,2.41,3.07,3.58,4.65l3.4,4.79l6.69,9.66
					l12.79,18.78c-1.19,2.47-2.38,4.94-3.58,7.39c-2-1.76-4.01-3.51-6.03-5.24c-2.83-2.45-5.69-4.87-8.56-7.28
					c-2.86-2.41-5.76-4.79-8.67-7.15c-2.92-2.34-5.83-4.71-8.86-6.92c2.68,2.63,5.34,5.28,8.04,7.88c2.7,2.6,5.41,5.2,8.15,7.76
					c2.73,2.57,5.47,5.12,8.24,7.65c2.13,1.97,4.28,3.92,6.44,5.86c-0.21,0.42-0.41,0.85-0.62,1.27l-0.01,0.03
					c-0.57,1.14-0.12,2.54,1.01,3.12c1.12,0.58,2.49,0.12,3.06-1.03c0.01-0.02,0.02-0.04,0.03-0.06c0.22-0.47,0.42-0.94,0.64-1.4
					c3.91-0.35,7.82-0.76,11.73-1.16c4.3-0.43,8.59-0.96,12.89-1.46c4.29-0.53,8.58-1.08,12.87-1.69c4.28-0.62,8.57-1.24,12.84-2.01
					c-4.33,0.07-8.66,0.29-12.98,0.51c-4.32,0.23-8.63,0.52-12.95,0.82c-4.31,0.34-8.62,0.65-12.92,1.06
					c-3.37,0.31-6.75,0.62-10.12,0.96c1.43-3.14,2.84-6.29,4.24-9.44l43.94-5.72l-43.01,3.63c2.11-4.77,4.2-9.55,6.3-14.32
					c2.85,0.1,42.17-4.1,45.53-4.17c-3.35-0.35-42.06,2.22-44.63,2.1l4.12-9.47c2.33-0.24,34.61-7.03,37.35-7.5
					c-2.77,0.08-34.46,5.16-36.41,5.33l2.13-4.9L313.15,371.5z"/>
			</g>
			<g class="st4">
				<path class="st15" d="M650.57,425.23c17.31-6.04,7.02-24.94,7.02-24.94c15.06-17.59-2.82-32.81-2.82-32.81
					c23.31-18.64,2.82-47.78,2.82-47.78c7.13-4.2,11.45-18.9,4.76-31.37c-6.69-12.47,1.54-25.4,1.54-25.4s-29.09-3.87-42.47,26.58
					c0,0-26.51-9.06-29.09,23.3c0,0-20.33,1.12-21.62,25.27c0,0-18.02,0-18.02,22.84c0,0-19.56,2.71-15.19,29.71
					c0,0-22.91,8.88-12.61,34.61H650.57z"/>
				<path class="st16" d="M584.98,420.06c6.11-12.36,12.02-24.94,17.95-37.47c-1.79-4.12-3.54-8.25-5.29-12.39
					c-2-4.71-3.93-9.45-5.88-14.18c-1.92-4.74-3.83-9.5-5.69-14.27c-1.85-4.78-3.7-9.56-5.42-14.39c2.31,4.57,4.5,9.2,6.68,13.82
					c2.18,4.63,4.3,9.28,6.42,13.94c2.09,4.67,4.19,9.34,6.23,14.03c1.49,3.42,2.97,6.85,4.44,10.28l4.97-10.61
					c-1.77-3.83-3.53-7.67-5.25-11.54c-1.97-4.34-3.86-8.72-5.78-13.09c-3.76-8.77-7.47-17.56-10.84-26.51
					c4.53,8.4,8.72,16.97,12.86,25.55c2.04,4.31,4.1,8.61,6.08,12.94c1.48,3.18,2.93,6.37,4.37,9.57l6.9-14.73l-1.59-5.8l-1.85-7.01
					c-1.25-4.67-2.39-9.37-3.56-14.06c-1.12-4.71-2.24-9.41-3.27-14.15c-0.53-2.36-1-4.74-1.49-7.11l-0.67-3.58
					c-0.11-0.6-0.2-1.2-0.29-1.8c-0.07-0.6-0.22-1.21-0.16-1.81c0.01,0.6,0.24,1.18,0.38,1.76l0.5,1.74l1.03,3.48l2.06,6.95
					l4.04,13.92c1.29,4.66,2.64,9.3,3.89,13.97l1.91,6.99l0.76,2.88l1.57-3.35l5.14-11.06l-6.85-40.91l8.61,37.11l5.44-11.7
					c-0.36-3-0.67-6.01-0.96-9.02c-0.33-3.12-0.56-6.25-0.83-9.38c-0.23-3.13-0.45-6.27-0.61-9.4c-0.16-3.14-0.3-6.28-0.31-9.44
					c0.66,3.08,1.19,6.18,1.7,9.28c0.51,3.1,0.96,6.21,1.41,9.32c0.4,3.11,0.84,6.22,1.18,9.34c0.19,1.59,0.37,3.17,0.54,4.76
					l7.42-15.96l-0.24-0.98c-0.44-1.8-0.85-3.62-1.23-5.44c-0.38-1.82-0.72-3.65-1.06-5.48c-0.31-1.84-0.61-3.68-0.86-5.53
					c-0.24-1.85-0.47-3.71-0.57-5.59c0.72,1.74,1.32,3.51,1.91,5.28c0.58,1.77,1.11,3.56,1.63,5.34c0.49,1.79,0.99,3.59,1.43,5.39
					c0.27,1.06,0.52,2.13,0.76,3.2l11.83-25.45c0.11-0.24,0.39-0.35,0.63-0.24c0.24,0.11,0.35,0.4,0.25,0.65l-10.47,24.26
					c0.08-0.04,0.15-0.09,0.23-0.13c1.31-0.77,2.63-1.5,3.97-2.22c1.33-0.73,2.68-1.41,4.04-2.09c1.37-0.67,2.74-1.32,4.16-1.9
					c-1.15,1.03-2.34,1.98-3.54,2.93c-1.21,0.93-2.41,1.86-3.65,2.74c-1.23,0.89-2.47,1.77-3.73,2.61
					c-1.06,0.74-2.14,1.44-3.23,2.14L637,315.29c1.28-0.54,2.55-1.1,3.84-1.62c2.24-0.94,4.49-1.83,6.75-2.72
					c2.26-0.89,4.53-1.75,6.81-2.59c2.28-0.84,4.57-1.65,6.89-2.39c-2.12,1.21-4.27,2.35-6.43,3.47c-2.16,1.12-4.33,2.22-6.51,3.28
					c-2.18,1.06-4.37,2.13-6.57,3.14c-2.07,0.98-4.16,1.94-6.25,2.87l-11.53,26.73l-1.39,3.19c1.9-1,3.81-2,5.72-2.99
					c3.21-1.69,6.45-3.32,9.68-4.97c3.24-1.63,6.49-3.25,9.75-4.84c3.26-1.59,6.54-3.15,9.84-4.66c-3.08,1.94-6.19,3.82-9.31,5.68
					c-3.12,1.86-6.26,3.69-9.4,5.5c-3.15,1.8-6.3,3.62-9.47,5.37c-2.81,1.58-5.63,3.15-8.46,4.69l-6.85,15.74
					c2.42-0.21,4.83-0.41,7.25-0.62c3.42-0.3,6.84-0.52,10.26-0.78c3.42-0.23,6.85-0.46,10.27-0.63c3.43-0.19,6.86-0.34,10.29-0.44
					c-3.39,0.57-6.79,1.09-10.19,1.57c-3.4,0.5-6.8,0.94-10.2,1.38c-3.41,0.42-6.81,0.87-10.22,1.24c-2.88,0.33-5.76,0.66-8.64,0.96
					l-5.1,11.73c3.19,0.14,6.37,0.29,9.56,0.48c4.16,0.21,8.31,0.46,12.47,0.74c4.16,0.25,8.31,0.57,12.46,0.89
					c4.15,0.33,8.31,0.68,12.46,1.11c-4.17,0.09-8.34,0.1-12.5,0.09c-4.17-0.02-8.33-0.04-12.49-0.13
					c-4.16-0.07-8.33-0.15-12.49-0.28c-3.53-0.08-7.06-0.21-10.58-0.34c-2.6,5.92-5.19,11.83-7.8,17.74l53.27-1.14l-54.42,3.74
					c-2.53,5.7-5.09,11.41-7.71,17.1c-0.01,0.02-0.02,0.05-0.03,0.07c-0.7,1.42-2.4,1.99-3.79,1.27c-1.39-0.72-1.95-2.44-1.25-3.86
					L584.98,420.06z"/>
			</g>
			<g class="st4">
				<path class="st12" d="M501.72,426.24c-17.94-6.19-7.28-25.58-7.28-25.58c-15.62-18.04,2.92-33.65,2.92-33.65
					c-24.17-19.11-2.92-49-2.92-49c-7.4-4.31-11.87-19.38-4.93-32.17s-1.6-26.05-1.6-26.05s30.15-3.97,44.03,27.26
					c0,0,27.49-9.29,30.15,23.89c0,0,21.08,1.14,22.42,25.91c0,0,18.68,0,18.68,23.42c0,0,20.28,2.78,15.74,30.46
					c0,0,23.75,9.11,13.08,35.49H501.72z"/>
				<path class="st13" d="M504.94,358.89l38.28,9.08l-2.48-5.71c-2.76-1.5-34.81-15.84-37.81-17.74
					c3.22,1.47,34.34,13.06,36.2,14.03l-1.35-3.11l-5.16-11.96l-31.87-14.57l30.08,10.41l-4.29-9.95
					c-2.04-0.91-25.22-12.55-27.29-13.72c2.26,0.73,24.59,9.84,25.84,10.36l-7.92-18.35c-1.06-0.68-2.11-1.36-3.14-2.08
					c-1.23-0.82-2.44-1.67-3.64-2.55c-1.21-0.86-2.39-1.76-3.56-2.67c-1.17-0.92-2.33-1.85-3.45-2.85c1.38,0.57,2.72,1.21,4.05,1.86
					c1.33,0.66,2.65,1.33,3.94,2.04c1.3,0.7,2.59,1.42,3.87,2.17c0.08,0.04,0.15,0.09,0.22,0.13l-10.21-23.66
					c-0.1-0.24,0-0.52,0.24-0.63c0.23-0.1,0.51,0,0.61,0.23l11.53,24.81c0.24-1.04,0.48-2.08,0.74-3.12
					c0.44-1.76,0.92-3.51,1.4-5.26c0.5-1.74,1.02-3.48,1.59-5.21c0.58-1.73,1.16-3.45,1.87-5.14c-0.1,1.84-0.33,3.65-0.56,5.45
					c-0.24,1.81-0.53,3.6-0.84,5.39c-0.33,1.78-0.66,3.57-1.03,5.34c-0.37,1.78-0.77,3.54-1.2,5.3l-0.24,0.96l7.23,15.56
					c0.17-1.55,0.35-3.09,0.53-4.64c0.33-3.04,0.77-6.07,1.15-9.11c0.43-3.03,0.87-6.06,1.37-9.08c0.5-3.02,1.02-6.04,1.66-9.05
					c-0.01,3.08-0.15,6.14-0.31,9.2c-0.16,3.06-0.37,6.12-0.6,9.17c-0.27,3.05-0.49,6.1-0.81,9.15c-0.29,2.93-0.59,5.87-0.94,8.8
					l5.3,11.41l8.4-36.19l-6.68,39.89l5.01,10.79l1.53,3.26l0.74-2.81l1.86-6.82c1.22-4.55,2.53-9.08,3.79-13.62l3.94-13.58
					l2.01-6.78l1-3.39l0.49-1.7c0.14-0.57,0.35-1.14,0.37-1.72c0.06,0.59-0.09,1.18-0.15,1.77c-0.09,0.59-0.18,1.17-0.28,1.75
					l-0.65,3.49c-0.47,2.31-0.94,4.63-1.45,6.94c-1,4.61-2.09,9.2-3.19,13.79c-1.15,4.57-2.26,9.16-3.47,13.71l-1.8,6.84l-1.55,5.65
					l6.73,14.36c1.4-3.12,2.82-6.23,4.26-9.33c1.93-4.23,3.94-8.42,5.93-12.62c4.04-8.37,8.13-16.72,12.54-24.91
					c-3.29,8.73-6.91,17.3-10.57,25.85c-1.87,4.26-3.71,8.53-5.63,12.76c-1.68,3.76-3.39,7.51-5.12,11.25l4.85,10.35
					c1.43-3.35,2.88-6.68,4.33-10.02c1.99-4.58,4.03-9.12,6.07-13.68c2.06-4.54,4.13-9.08,6.26-13.6c2.13-4.51,4.27-9.02,6.52-13.48
					c-1.68,4.71-3.48,9.37-5.29,14.03c-1.81,4.65-3.67,9.29-5.55,13.91c-1.9,4.61-3.79,9.24-5.74,13.83
					c-1.71,4.03-3.41,8.06-5.16,12.08c1.1,2.33,2.2,4.66,3.3,6.99l31.59-49.77l-29.33,54.54c1.06,2.25,2.13,4.5,3.2,6.74
					l15.79-19.61l8.99-10.98l4.55-5.44c1.55-1.78,3.03-3.64,4.76-5.25c-1.59,1.74-2.92,3.71-4.32,5.61l-4.1,5.79l-8.08,11.67
					l-15.44,22.68c1.43,2.98,2.87,5.96,4.32,8.93c2.42-2.12,4.84-4.24,7.28-6.33c3.42-2.96,6.87-5.88,10.34-8.79
					c3.46-2.92,6.96-5.78,10.47-8.63c3.53-2.83,7.05-5.68,10.71-8.35c-3.24,3.18-6.45,6.38-9.71,9.52
					c-3.26,3.14-6.53,6.28-9.84,9.37c-3.3,3.1-6.61,6.19-9.95,9.23c-2.57,2.38-5.17,4.73-7.78,7.08c0.25,0.51,0.5,1.02,0.75,1.53
					l0.02,0.03c0.68,1.38,0.14,3.07-1.22,3.76c-1.35,0.7-3.01,0.14-3.69-1.24c-0.01-0.02-0.02-0.05-0.03-0.07
					c-0.26-0.57-0.51-1.13-0.77-1.7c-4.72-0.43-9.44-0.92-14.16-1.4c-5.19-0.53-10.38-1.16-15.56-1.76
					c-5.18-0.64-10.36-1.3-15.54-2.04c-5.17-0.74-10.34-1.5-15.5-2.42c5.23,0.09,10.45,0.34,15.67,0.61
					c5.22,0.28,10.43,0.63,15.63,1c5.2,0.41,10.41,0.79,15.61,1.27c4.07,0.37,8.15,0.75,12.22,1.16c-1.72-3.8-3.43-7.6-5.12-11.4
					l-53.07-6.91l51.94,4.38c-2.55-5.76-5.08-11.53-7.61-17.3c-3.44,0.13-50.92-4.95-54.99-5.04c4.05-0.42,50.79,2.68,53.9,2.54
					l-4.98-11.43c-2.81-0.29-41.8-8.49-45.11-9.05c3.35,0.1,41.61,6.23,43.97,6.43l-2.57-5.91L504.94,358.89z"/>
			</g>
		</g>
		<g>
			<g>
				<ellipse class="st17" cx="354.37" cy="463.91" rx="54.92" ry="9.05"/>
				<path class="st17" d="M535.85,483.01c0,4.87-28.88,8.82-64.5,8.82s-64.5-3.95-64.5-8.82c0-4.87,28.88-8.82,64.5-8.82
					S535.85,478.14,535.85,483.01z"/>
			</g>
			<g>
				
					<ellipse transform="matrix(0.3548 -0.9349 0.9349 0.3548 179.572 399.6453)" class="st12" cx="379.34" cy="69.72" rx="32.93" ry="41.64"/>
				
					<ellipse transform="matrix(0.3548 -0.9349 0.9349 0.3548 178.7762 397.9253)" class="st18" cx="377.7" cy="69.43" rx="23.47" ry="29.68"/>
				<path class="st9" d="M400.49,116.6c-0.74,3.1-5.44,4.31-8.13,5.12c-5.44,1.61-10.69,2.75-16.27,3.59
					c-6.77,1.03-13.16,3.49-20.03,3.47c-3.22,0-7.34,0.97-9.87-1.64c1.25-1.56,2.92-2.61,4.3-4c2.02-2.06,3.41-4.73,5.04-7.14
					c3.14-4.66,5.96-10.21,6.43-15.87c0.17-2.07,0.03-4.14-0.51-6.18c-0.34-1.27-0.78-2.46-1.22-3.63c-0.61-1.66-1.22-3.3-1.5-5.14
					c-0.33-2.16-0.18-4.23,0-6.4c0.17-1.94,1.08-5.37,0.81-6.76c-0.65-12.71,12.24-22.51,24.02-20.11
					c10.69,2.19,12.19,15.74,12.18,24.99c0,1.95,0.27,2.69,0.87,4.28c0.57,1.46,1.28,1.62,0.77,3.47c-0.68,2.46-3.52,6.6-5.89,7.18
					c-1.55,0.38-2-0.65-3.43,0.71c-0.48,0.46-0.95,1.38-1.36,2.24v0.01c-0.26,0.51-0.47,1-0.67,1.38c-1.56,2.95-2.43,5.78-1.73,9.29
					c0.58,2.95,2.2,5.12,4.47,6.66c0.68,0.46,1.42,0.87,2.2,1.22C393.99,114.75,397.08,116.77,400.49,116.6z"/>
				<path class="st19" d="M388.75,112.16c-3.12,0.98-7-0.17-8.93-3c-1.65-2.4-1.39-6.09-4.58-7.12c-3.36-1.07-6.81,1.46-10.32,0.07
					c-0.94-0.38-1.93-1.16-2.95-1.95c0.17-2.07,0.03-4.14-0.51-6.18c-0.34-1.27-0.78-2.46-1.22-3.63c1.41,0.8,2.8,1.74,3.96,2.88
					c6.5,6.38,14.88,5.08,22.48,1.61c-0.26,0.51-0.47,1-0.67,1.38c-1.56,2.95-2.43,5.78-1.73,9.29
					C384.86,108.45,386.48,110.62,388.75,112.16z"/>
				<path class="st9" d="M410.92,151.15c0,0,18.76,41,24.78,44.54c6.02,3.55,59.4,9.72,59.4,9.72l6.64-8.21l-49.54-15.19
					c-4.44-1.37-8.21-4.38-10.57-8.45l-10.8-18.6c-3.91-6.74-5.98-14.44-5.98-22.27v-0.37c0-1.57-0.31-3.12-0.92-4.57l-1.28-3.03
					c-1.95-4.63-6.89-7.16-11.7-5.99l-5.92,1.44L410.92,151.15z"/>
				<path class="st9" d="M492.65,204.79c0.48,0.01,1.16,0.8,1.64,1.27c0.86,0.85,1.63,1.44,2.76,1.87c2.79,1.07,5.37,0.96,7.83,2.87
					c3.72,2.9,2.96,7.98,3.25,12.17c0.17,2.51,1.26,1.41,2.33,0.42c0.08,1.21-0.43,5.85,1.41,5.61c2.1-0.28,1.08-4.49,2.26-5.61
					c0.08,1.14-0.22,6.96,2.12,5.44c1.02-0.67,0.97-2.76,1.06-3.84c0.17-2.08,0.26-4.17,0.26-6.27c0-1.01-0.2-3.13,0.36-3.9
					c0.8,2.38,1.97,4.67,2.8,7.03c0.39,1.1,1.87,4.35,3.56,3.3c1.55-0.97-0.5-4.67-0.98-5.82c-0.84-1.98-1.5-4.04-2.37-6.01
					c-1.59-3.62-2.24-7.74-5.08-10.54c-1.92-1.9-4.04-1.94-6.36-3.02c-2.11-0.99-4.66-1.9-6.87-2.59c-2.09-0.66-7.1-1.87-9.35-1.23
					c-1.96,0.56-0.29,3.23-0.76,5.29C492.33,202.14,491.81,204.14,492.65,204.79z"/>
				<path class="st9" d="M355.55,199.55c-0.74,1.67-0.67,4.09-1.2,5.98c-0.79,2.81-1.68,5.71-3.5,8.01
					c4.26,4.73,11.2,6.73,17.38,6.72c6.26-0.02,12.47-1.56,18.72-1.8c2.99-0.12,5.77-0.86,8.73-1.09c2.97-0.24,6.4-0.98,8.46-3.2
					c0.63-0.68,1.71-1.47,1.99-2.34c-1.04-2.34-1.61-4.67-1.63-7.33c-0.01-1.88,0-3.71,0.6-5.49c0.27-0.82,0.93-1.64,0.94-2.49
					c-1.1-0.03-2.12-0.27-3.16-0.64c-4.64-1.64-9.74-2.32-14.59-3.08c-6.06-0.94-12,0.27-17.95,1.31c-3.07,0.54-6.12,0.98-9.09,1.96
					c-1.66,0.55-2.56,1.78-4.01,2.54C356.55,198.95,355.83,199.19,355.55,199.55z"/>
				<path class="st20" d="M351.17,207.04c2.22-3.78,5.18-6.39,4.35-11.25c-0.8-4.65-3.12-9.08-3.65-13.78
					c-0.23-2-0.12-3.99-0.54-5.96c-1.04-4.84-0.6-9.93-1.81-14.75c-1.17-4.66-1.08-11.92-6.1-14.16c-1.44-0.64-3.95-1.1-4.96,0.37
					c-0.95,1.37-0.68,4.29-0.74,5.84c-0.13,3.39,0.2,6.84,0.44,10.22c0.24,3.42,0.63,6.81,0.94,10.22
					c0.32,3.51,0.27,7.11,0.89,10.58c0.65,3.63,1.64,6.97,3.03,10.36c0.81,1.97,1.34,4.16,2.3,6.05c0.89,1.73,2.36,2.97,3.66,4.31
					C349.52,205.64,350.23,206.65,351.17,207.04z"/>
				<path class="st6" d="M413.83,168.21c-0.65,3.16-1.62,6.24-2.55,9.32c-0.97,3.16-1.9,6.31-2.5,9.55
					c-0.88,4.85-0.78,9.55-1.12,14.43c-6.32-4.28-16.13-4.26-23.61-3.17c-3.58,0.52-7.14,0.36-10.69,0.25
					c-3.11-0.1-6.2-0.19-9.3,0.23c-3.08,0.42-6.12,1.26-9.01,2.14c-0.44-7.24-0.23-14.42-2.23-21.47
					c-1.87-6.59-5.66-12.35-6.33-19.23c-0.34-3.5-1.41-5.36-2.9-7.96c-0.37-0.64-0.77-1.32-1.18-2.08
					c-1.86-3.43-7.27-12.35-5.93-16.23c0.94-2.68,7.82-6.95,10.26-7.66c1.04-1.8,3.56-0.29,5.07,0.01c2.4,0.48,4.85,0.13,7.21-0.46
					c3.73-0.94,7.1-1.81,10.94-2c3.34-0.17,6.39-1.48,9.69-1.91c5.65-0.74,11.34-1.2,16.62-3.47c2.7-1.16,3.8-3.17,6.43-4.33
					c8.55-3.72,8.99,14.95,10.05,20.02c0.45,2.17,0.87,4.36,1.19,6.57C415.41,149.9,415.73,159.2,413.83,168.21z"/>
				<path class="st8" d="M413.83,168.21c-0.65,3.16-1.62,6.24-2.55,9.32c-1.53-1.09-2.77-2.9-4.67-2.91
					c-1.02-0.01-1.39,1.09-2.57,0.41c-1.04-0.59-2.54-3.89-3.55-4.94c-3.31-3.4-5.71-2.16-10.01-1.71
					c-4.51,0.48-7.61-3.05-12.29-2.33c-3.63,0.55-6.81,2.65-10.12,4.23c-2.14,1.04-5.65,2.36-6.87,4.42
					c1.62,1.1,12.92,0.35,9.94,3.45c-2.4,2.5-7.71-0.12-8.99,3.76c-1.06,3.21,1.77,7.38,3.26,9.92c2.06,3.49,5.15,4.81,7.95,6.78
					c-3.11-0.1-6.2-0.19-9.3,0.23c-3.08,0.42-6.12,1.26-9.01,2.14c-0.44-7.24-0.23-14.42-2.23-21.47
					c-1.87-6.59-5.66-12.35-6.33-19.23c-0.34-3.5-1.41-5.36-2.9-7.96c0.35-1.77,0.94-3.4,1.85-4.6c2.13,2.07,2.16,6.5,4.63,8.21
					c2.7,1.87,0.84-6.16,3.07-7.07c0.28,4.57,0.84,15.6,7,17.23c9.87,2.62,16.89-10.73,27.08-8.25c4.58,1.11,9.24,4.71,13.83,1.72
					c2.36-1.53,4.24-4.42,4.9-7.21c0.58-2.48,0.21-5.91,1.49-7.96c0.6,1.77,0.01,4.42,1.32,5.82c2.98-0.97,4.19-4.86,4.81-7.69
					c0.09-0.38,0.23-0.98,0.4-1.74C415.41,149.9,415.73,159.2,413.83,168.21z"/>
				<path class="st21" d="M402.09,372.92l-10.22,7.33l-20.53,14.71c-4,2.88-7.71,6.18-11.04,9.84l-12.63,12.44l-7.95,7.8
					l-8.56-10.79l7.1-9.64l6.88-9.32l3.39-4.6c3.88-4.69,8.26-8.93,13.06-12.64l2.81-2.17
					C396.44,368.99,402.09,372.92,402.09,372.92z"/>
				<path class="st22" d="M402.09,372.92l-10.22,7.33c-0.61,0.07-1.21,0.16-1.82,0.28c-3.92,0.72-7.25,2.4-10.89,3.91
					c-10.66,4.44-22.84,14-34.02,10.86l3.39-4.6c3.88-4.69,8.26-8.93,13.06-12.64l2.81-2.17
					C396.44,368.99,402.09,372.92,402.09,372.92z"/>
				<path class="st9" d="M375.99,451.47l-12.56-8.22c-0.45-1.64-0.97-3.66-1.52-5.96c-3.25-13.55-8.03-37.07-11.13-52.64
					c-1.82-9.15-3.05-15.55-3.05-15.55h22.9l0.64,18.11l1.46,41.5c0.09,2.39,0.38,4.78,0.87,7.12l0.58,3.81L375.99,451.47z"/>
				<path class="st19" d="M371.26,387.21c-5.38,0.88-9.96-3.13-15.25-3.14c-1.77,0-3.52,0.2-5.24,0.58
					c-1.82-9.15-3.05-15.55-3.05-15.55h22.9L371.26,387.21z"/>
				<path class="st8" d="M344.95,461.96c0.36,0.84-0.83,2.4-0.98,3.34c-0.16,1.03-0.41,2.77,0.39,3.62
					c0.69,0.73,2.15,0.67,3.07,0.83c1.99,0.35,4.06,0.75,6.08,0.93c4.42,0.38,10.85,1.51,14-2.64c0.98-1.3,1.57-2.47,3.18-2.92
					c1.57-0.45,3.19-0.3,4.82-0.48c3.94-0.45,4.58-4.68,3.64-7.91c-0.35,0.48-0.99,0.5-1.52,0.63c-3.62,0.89-7.54,1.1-11.24,1.99
					c-3.93,0.95-7.75,2.53-11.74,3.18c-2.22,0.37-3.69-0.19-5.78-0.45C347.73,461.93,346.7,462.33,344.95,461.96z"/>
				<path class="st23" d="M347.67,417.24l-7.95,7.8l-8.56-10.79l7.1-9.64c-0.71,2.58,0.37,5.24,2.02,7.46
					c1.25,1.66,2.95,3.45,4.84,4.3C345.77,416.67,346.9,416.86,347.67,417.24z"/>
				<path class="st23" d="M375.99,451.47l-12.56-8.22c-0.45-1.64-0.97-3.66-1.52-5.96c0.58,0.01,1.16,0.07,1.55,0.06
					c2-0.07,3.89-0.04,5.82,0.55c1.83,0.56,3.12,1.58,4.9,1.75L375.99,451.47z"/>
				<path class="st6" d="M364.71,440.61c-3.69-0.63-5.75,3.86-7.65,6.53c-1.63,2.29-3,4.42-4.92,6.5c-1.64,1.78-3.59,3.17-5.26,4.89
					c-0.75,0.77-1.79,1.94-1.87,3.09c-0.12,1.86,1.79,3.17,3.32,3.57c4.79,1.24,10.82,1.47,15.48-0.58
					c2.54-1.12,4.46-3.34,7.15-4.05c2.74-0.72,6.81-0.01,8.17-3.14c1.13-2.61,0.05-5.43-0.44-8.04c-0.22-1.17-0.19-3.91-1.84-3.5
					c-0.87,0.22-1.3,1.03-2.18,1.16c-1.37,0.2-2.56-0.98-3.55-1.9c-1.13-1.04-2.27-2.32-3.6-3.09
					C366.64,441.56,365.64,441.38,364.71,440.61z"/>
				<path class="st8" d="M321.77,402.81c-0.67-0.28-1.81,0.16-2.45,0.46c-1.66,0.77-2.23,2.56-2.48,4.29
					c-0.64,4.42,1.03,8.88,2.82,12.84c2.21,4.89,2.31,10.3,2.64,15.58c0.28,4.43,0.81,8.93,2.13,13.17
					c0.81,2.61,1.74,5.09,3.25,7.34c0.98,1.46,1.92,3.95,3.48,4.88c1.24,0.74,3.51,0.97,4.89,0.58c0.66-0.19,1.83-0.68,2.2-1.27
					c0.26-0.41,0.26-0.4,0.12-0.87c-0.15-0.52-0.9-1.09-1.21-1.52c-0.67-0.95-1.41-1.97-2.01-2.97c-4.03-6.77-4.94-14.59-5.31-22.31
					c-0.2-4.25,0.16-8.91-0.99-13.04c-0.84-3.03-2.66-5.61-3.42-8.69C324.66,408.18,324.67,404.91,321.77,402.81z"/>
				<path class="st6" d="M341.48,453.3c-0.6-4.79,0.81-10.11,1.24-14.88c0.26-2.87,0.48-5.75,0.78-8.62
					c0.17-1.61,0.87-4.27,0.26-5.84c-0.42-1.07-1.5-1.38-2.49-1.65c-1.77-0.49-3.29-1.16-4.33-2.82c-2.1-3.36-2.92-6.85-1.54-10.61
					c0.61-1.67,1.57-2.84,2.62-4.22c0.42-0.56,2.24-2.67,1.17-3.18c-1.55-0.73-3.25,0.55-5.02,0.4c-3.02-0.25-5.88,0.09-8.82,0.35
					c-0.89,0.08-2.14-0.23-2.96,0.1c-0.92,0.37-1.13,1.56-1.32,2.55c-0.8,4.25-0.2,8.9,1.03,13.02c1.64,5.48,3.57,10.73,3.89,16.51
					c0.29,5.03,0.58,9.98,2.41,14.7c1.46,3.76,3.84,12.21,9.13,11.6C341.63,460.23,341.91,456.7,341.48,453.3z"/>
				<path class="st24" d="M420.3,365.67c-0.06,4.53-3.09,4.81-7.27,5.44c-4.51,0.69-9.08,1.51-13.7,2.27
					c-16.45,2.74-33.36,4.97-49.47-0.58c-2.48-0.85-4.63-1.59-7.2-1.94c-1.45-0.2-3.17,0.06-4.47-0.65
					c-2.51-1.36-1.93-2.87-1.45-4.73c0.24-0.9,0.45-1.9,0.28-3.01c-3.02-0.84-6.25-1.1-9.48-1.66c-0.85-0.14-1.94-0.36-3.17-0.64
					c-4.36-1.01-10.26-2.91-11.78-6.28c-1.08-2.4,0.78-6.15,1.22-8.69c0.92-5.25,1.75-10.65,2.3-16.01
					c1.97-18.73,5.68-37.42,9.96-55.71c1.82-7.74,3.72-15.3,5.18-23.1c0.89-4.78,2.2-9.45,4.23-13.84
					c2.78-6.05,6.6-11.36,9.81-17.17c1.73-3.14,5.25-7.35,5.69-10.5c3.12,0.87,6.37,2.53,9.4,3.75c2.68,1.09,5.76,0.97,8.56,1.39
					c4.56,0.69,7.98,1.68,12.63,1.11c8.62-1.03,16.85-2.52,25.05-4.36c0.38,4.1,2.36,9.61,2.84,14.61
					c1.09,11.28,2.4,22.54,3.15,33.85c1.02,15.27,1.29,30.59,1.97,45.89v0.01c0.48,10.67,1.15,21.32,2.43,31.94
					C418.15,346.26,420.43,356.45,420.3,365.67z"/>
				<g>
					<path class="st25" d="M341.89,327.02c-0.78,9.38-0.18,18.99-1.63,28.29c-0.4,2.62-1.69,6.53-3.51,10.18
						c0.24-0.9,0.45-1.9,0.28-3.01c-3.02-0.84-6.25-1.1-9.48-1.66c-0.85-0.14-1.94-0.36-3.17-0.64c0.09-4.39,0.74-8.92,0.95-13.22
						c0.37-7.4,0.53-14.82,1.22-22.15c0.91-9.31,0.94-19.02,1.26-28.45c0.24-7.17-0.14-16.56,1.99-23.08
						c1.75,6.62,0.61,14.1,0.89,20.95c0.33,7.8,1.23,15.69,2.06,23.42c0.43,4.01,1.75,7.96,2.13,11.96
						c0.28,2.91-0.82,7.17,1.23,9.15c3.92-7.89,1.43-20.01,1.86-28.68c0.47-9.76,0.28-19.6-0.21-29.34
						c-0.31-6.2-1.25-12.29-1.25-18.5c0.01-5.78,1.06-12.91-0.44-18.47c3.73,12.91,1.93,28.98,3.35,42.47
						C340.84,299.64,343.01,313.48,341.89,327.02z"/>
					<path class="st25" d="M420.3,365.67c-0.06,4.53-3.09,4.81-7.27,5.44c-4.51,0.69-9.08,1.51-13.7,2.27
						c0.04-2.04,0.18-4.1,0.31-6.18c0.5,0.23,1.42,0.1,1.93,0.29c2.07-4.4,2.09-9.89,1.41-14.71c-1.32-9.54-1.65-19.21-4.1-28.62
						c-2.75-10.54-7.41-21.61-8.87-32.37c-1.22-9.09,1.56-19.85-1.68-28.55c4.41,9.71,4.1,20.53,7.4,30.82
						c2.13,6.69,4.27,13.13,5.71,20.01c0.84,4.01,1.99,12.33,5.08,14.94c1.38-5.02-0.07-13.58-1.19-18.96
						c-2.48-12.06-4.4-24.31-7.32-35.96c-1.6-6.44-2.87-13.22-4.03-19.83c-1.25-7.08-2.67-14.26-3.65-21.37
						c-0.61-4.49,0.35-10.08-1.12-14.2c2.29,2.39,3.88,5.28,4.56,9.29c0.94,5.6,1.82,12.94,5.1,17.62c0.87-3.37,0.3-7.72,0.3-11.31
						c0-6.37,1.36-14.61-0.35-20.63c2.11,1.64,2.55,5.37,3.15,7.98c1.16,5.17,2.92,10.32,3.75,15.56
						c2.19,13.72,0.38,27.93,2.68,41.62c1.46,8.73,3.79,17.57,6.23,26.29v0.01c0.48,10.67,1.15,21.32,2.43,31.94
						C418.15,346.26,420.43,356.45,420.3,365.67z"/>
				</g>
				<path class="st9" d="M351.72,192.68c-1.15-3.22-2.38-6.3-3.42-9.58c-1.23-3.89-2.73-7.54-3.86-11.47
					c-1.24-4.34-1.77-8.14-2.19-12.62c-0.5-5.22-0.36-10.31-1.35-15.39c-1.35-6.91-4.68-13.58-12.14-14.01
					c-0.95-0.06-1.65,0.28-2.63,0.18c1.37-1.58,2.81-2.99,4.23-4.44c1.26-1.28,2.77-2.55,1.36-3.61c-0.92-0.69-5.38,3.94-6.49,4.66
					c-2.78,1.81-3,2.32-3.75,5.36c-1.9-0.66-4.32-2.66-5.85-4.37c-0.01-0.01-0.03-0.01-0.05-0.03c-0.52-0.64-1.62-1.82-2.1-0.7
					c-0.45,1.08,1.33,2.64,1.94,3.34c0.3,0.5,0.63,0.98,0.93,1.43c0.09,0.15,0.17,0.3,0.26,0.46c0.08,0.13,0.19,0.27,0.3,0.4
					c0.07,0.11,0.14,0.23,0.19,0.32c1.2,2.23,2.69,3.3,2.55,5.79c-0.17,2.9-0.06,4.55,2.54,6.7c2.35,1.94,5.2,3.38,7.45,5.23
					c1.41,2.15,1.19,6.65,1.67,8.8c0.82,3.65,1.22,7.36,1.05,11.09c-0.28,6.18,0.37,12.23,0.37,18.38c0,2.92-0.36,6.17,0.22,9
					c0.59,2.89,2.03,5.44,3.26,8.1c0.98,2.11,2.05,5.32,3.7,6.99c1.4,1.42,4.69,2.65,6.63,2.7c2.48,0.06,2.83-1.31,3.75-3.28
					c1.67-3.59,4.23-8.18,4.06-12.15C354.26,197.69,352.51,194.88,351.72,192.68z"/>
				<path class="st26" d="M518.68,471.86h-94.65c-6.75,0-12.23-5.47-12.23-12.23V311.96c0-6.75,5.47-12.23,12.23-12.23h94.65
					c6.75,0,12.23,5.47,12.23,12.23v147.67C530.91,466.38,525.44,471.86,518.68,471.86z"/>
				<path class="st27" d="M510.41,462.3h-78.1c-11.32,0-20.5-9.36-20.5-20.91v9.56c0,11.55,9.18,20.91,20.5,20.91h78.1
					c11.32,0,20.5-9.36,20.5-20.91v-9.56C530.91,452.93,521.73,462.3,510.41,462.3z"/>
				<path class="st26" d="M483.21,337.8H459.5c-7.56,0-13.71-6.27-13.71-13.99V218.13c0-1.6,1.27-2.9,2.84-2.9s2.84,1.3,2.84,2.9
					v105.69c0,4.52,3.61,8.2,8.04,8.2h23.71c4.43,0,8.04-3.68,8.04-8.2V218.13c0-1.6,1.27-2.9,2.84-2.9c1.57,0,2.84,1.3,2.84,2.9
					v105.69C496.93,331.53,490.77,337.8,483.21,337.8z"/>
				<path class="st27" d="M494.09,223.2c-2.74,0-4.97-2.27-4.97-5.07c0-3.32-2.65-6.03-5.91-6.03H459.5c-3.26,0-5.91,2.7-5.91,6.03
					c0,2.8-2.22,5.07-4.97,5.07s-4.97-2.27-4.97-5.07c0-8.91,7.11-16.16,15.84-16.16h23.71c8.74,0,15.84,7.25,15.84,16.16
					C499.05,220.93,496.83,223.2,494.09,223.2z"/>
				<path class="st28" d="M386.15,68.99c-1.78,0-3.38,0.78-4.5,2.02c-2.22-3.17-5.97-2.88-7.67-2.27c-0.01,0-0.01,0.01-0.02,0.01
					c-0.96-2.21-3.12-3.76-5.64-3.76c-3.41,0-6.17,2.82-6.17,6.29c0,3.47,2.76,6.29,6.17,6.29c3.41,0,6.17-2.82,6.17-6.29
					c0-0.4-0.05-0.79-0.12-1.17c0.03-0.01,0.05,0,0.08-0.01c0.16-0.06,4-1.38,6.13,1.87c0.06,0.09,0.14,0.16,0.23,0.21
					c-0.51,0.92-0.83,1.96-0.83,3.1c0,3.47,2.76,6.29,6.17,6.29c3.41,0,6.17-2.82,6.17-6.29C392.32,71.81,389.56,68.99,386.15,68.99
					z"/>
				<g>
					<path class="st29" d="M436.87,318.38c-2.98,0-5.54,1.8-6.73,4.38c0.95-0.45,2.01-0.71,3.13-0.71c4.1,0,7.42,3.39,7.42,7.57
						v122.05c0,1.14-0.26,2.22-0.7,3.19c2.53-1.21,4.29-3.82,4.29-6.86V325.95C444.3,321.77,440.97,318.38,436.87,318.38z"/>
					<path class="st29" d="M458.28,318.38c-2.98,0-5.54,1.8-6.73,4.38c0.95-0.45,2.01-0.71,3.13-0.71c4.1,0,7.42,3.39,7.42,7.57
						v122.05c0,1.14-0.26,2.22-0.7,3.19c2.53-1.21,4.29-3.82,4.29-6.86V325.95C465.7,321.77,462.38,318.38,458.28,318.38z"/>
					<path class="st29" d="M479.69,318.38c-2.98,0-5.54,1.8-6.73,4.38c0.95-0.45,2.01-0.71,3.13-0.71c4.1,0,7.42,3.39,7.42,7.57
						v122.05c0,1.14-0.26,2.22-0.7,3.19c2.53-1.21,4.29-3.82,4.29-6.86V325.95C487.11,321.77,483.79,318.38,479.69,318.38z"/>
					<path class="st29" d="M501.1,318.38c-2.98,0-5.54,1.8-6.72,4.38c0.95-0.45,2.01-0.71,3.13-0.71c4.1,0,7.42,3.39,7.42,7.57
						v122.05c0,1.14-0.26,2.22-0.7,3.19c2.53-1.21,4.29-3.82,4.29-6.86V325.95C508.52,321.77,505.2,318.38,501.1,318.38z"/>
				</g>
				<path class="st29" d="M508.29,462.4h-73.86c-8.1,0-14.69-6.72-14.69-14.99V324.18c0-8.26,6.59-14.99,14.69-14.99h73.86
					c8.1,0,14.69,6.72,14.69,14.99v123.23C522.98,455.67,516.39,462.4,508.29,462.4z M434.43,310.56c-7.36,0-13.35,6.11-13.35,13.62
					v123.23c0,7.51,5.99,13.62,13.35,13.62h73.86c7.36,0,13.35-6.11,13.35-13.62V324.18c0-7.51-5.99-13.62-13.35-13.62H434.43z"/>
				<g>
					<g>
						<rect x="432.59" y="471.74" class="st26" width="4.27" height="2.45"/>
						<path class="st27" d="M437.5,484.69h-5.55c-0.91,0-1.65-0.74-1.65-1.65v-7.19c0-0.91,0.74-1.65,1.65-1.65h5.55
							c0.91,0,1.65,0.74,1.65,1.65v7.19C439.15,483.95,438.41,484.69,437.5,484.69z"/>
					</g>
					<g>
						<rect x="505.85" y="471.74" class="st26" width="4.27" height="2.45"/>
						<path class="st27" d="M510.76,484.69h-5.55c-0.91,0-1.65-0.74-1.65-1.65v-7.19c0-0.91,0.74-1.65,1.65-1.65h5.55
							c0.91,0,1.65,0.74,1.65,1.65v7.19C512.41,483.95,511.67,484.69,510.76,484.69z"/>
					</g>
				</g>
				<g>
					<path class="st30" d="M356.41,139.36c0.16,0.03,0.31,0.05,0.45,0.05C356.7,139.41,356.56,139.37,356.41,139.36z"/>
					<path class="st30" d="M419.53,131.98c-1.11-1.98-2.05-4.84-2.21-7.13c-0.21-2.97,1.53-5.6,1.09-8.51
						c-0.38-2.5-2.06-4.07-3.41-5.82c2.22,1.74,4.95,3.91,5.07,7.08c0.36-1.2-0.74-3.91-1.29-5.06c-1.12-2.31-3.73-4.76-5.77-6.24
						c-2.3-1.67-4.49-2.27-5.08-5.42c-0.46-2.42-0.41-4.97,0.53-7.26c-1.29,3.52,1.57,5.45,1.72,8.74c0.01-1.85-0.79-3.27-1.08-5.02
						c-0.26-1.51,0.44-2.9,0.35-4.38c-0.09-1.34-0.88-2.76-1.56-3.9c-1.34-2.26-3.74-3.49-4.81-5.93c-1.01-2.31-1.24-4.96-1.48-7.5
						c0.25,1.53,0.75,3.12,1.31,4.44c1.03,2.45,3.75,4.17,4.07,6.82c0.06-1.97-0.98-3.74-2.07-5.25c-1.74-2.4-1.79-4.69-2.27-7.54
						c-0.71-4.14-2.88-8.02-5.48-11.23c2.05,2.26,4.63,4.29,5.26,7.53c0.04-1.16-0.84-2.58-1.24-3.65c-0.64-1.74-1.63-3.2-2.93-4.53
						c-2.8-2.86-5.69-4.56-7.27-8.43c-0.76-1.85-2.53-4.29-4.72-4.37c-1.64-0.06-3.13,0.54-4.91,0.22
						c-1.28-0.23-2.69-0.57-3.92-0.38c-0.22-0.94-0.71-1.93-1.91-2.35c-2.78-0.39-4.81,2.65-7.19,3.62
						c-2.37,0.97-4.86,1.22-7.09,2.58c-2.26,1.38-4.25,3.98-5.46,6.34c-1.91,3.72-1.22,8.22-3.34,11.87
						c-1.85,3.2-3.16,5.8-3.35,9.61c-0.21,4.42,1.04,9.08-0.43,13.33c1.74-0.75,1.25-6.35,1.43-7.98c0.23-2.12,0.6-7.53,3.33-7.89
						c-2.36,3.24-2.04,7.78-1.88,11.5c0.21,4.95-0.58,8.07-4.12,11.24c3.05-0.17,5.57-6.64,5.53-9.23c1.08,3.04-0.69,8.59-2.24,11.2
						c-1.55,2.63-3.99,4.58-5.44,7.24c-1.12,2.05-1.61,4.35-1.72,6.68c-0.08,1.71,0.14,3.81,0.14,5.25
						c-0.29-3.26,1.83-7.76,4.63-9.31c-3.63,3.22-2.46,8.24-3.35,12.49c-0.56,2.68-2.52,4.13-3.31,6.59
						c-0.85,2.62-0.4,5.77,1.13,8.04c0.72,1.06,2.34,2.72,3.61,2.26c-3.8,0.34-2.47-6.96-0.01-8.06c2.78-1.24,4.17,0.75,5.57,2.64
						c1.13,1.52,2.65,2.28,4.47,2.42c-1.07-0.22-2.46-1.13-2.82-2.06c-0.49-1.26,0.42-2.22,1.73-1.96c1.28,0.26,2.01,1.87,3.06,2.53
						c1.49,0.93,3.45,1.07,4.95,0.13c-4.98,0.59-2.62-5.39-1.28-7.65c2.01-3.4,3.01-7.13,2.43-11.14c0.49,3.12,1.93,5.23,0.4,8.48
						c1.1-1.5,1.89-4.05,2.41-5.84c0.66-2.28,0.94-4.94,0.4-7.28c-1.05-4.55-5.4-6.88-5.27-11.87c-0.17,0.86,1.43,2.55,2.04,3.37
						c1.07,1.44,1.79,2.63,2.37,4.34c0.74-1.85-1.31-4.51-2.31-5.89c-1.62-2.25-1.8-4.21-1.82-6.97c-0.04-3.88-3.62-6.1-3.17-10.14
						c0.18-1.65,0.61-3.14,0.45-4.81c-0.2-2.06-0.54-4.11-0.72-6.17c-0.35-4.08,1.04-6.49,4.16-9.12c2.44-2.06,5.19-3.28,7.01-6.05
						c1.3-1.99,2.94-3.88,4-5.99c-0.94,4.22-3.86,7.88-6.78,10.86c2.64-2.26,4.88-5.16,6.77-8.07c0.64-0.99,0.9-2.15,1.22-3.25
						c0.27,0.34,0.59,1.12,0.94,1.33c1.09,0.67,1.37,0.57,2.49,1.04c0.75,0.31,1.73,1.44,2.65,1.86c1.99,0.9,3.2,0.25,3.58,0.81
						c0.7,1.02,0.95,2.48,1.32,3.65c0.68,2.11,1.7,3.5,2.95,5.25c-1.06-1.51-3.81-6.71-2.35-8.5c0.73,1.74,1.62,3.46,2.34,5.23
						c1.04,2.55,2.75,4.91,2.61,7.81c0.93-2.79-0.75-6.48-1.8-9c1.33,2.13,2.45,4.6,3.05,7.09c0.41,1.69,0.28,3.44,0.18,4.96
						c-0.1,2.56,1.84,4.04,2.4,6.41c0.6,2.52-0.33,4.6-2.68,5.7c-1.01,0.47-2.13,0.44-3.1,0.88c-1.43,0.66-2.82,2.25-3.68,3.53
						c-1.48,2.19-3.36,5.53-3.84,8.14c-0.47,2.54,1.07,6.39-1.1,8.35c2.71-1.77,1.09-4.98,2.58-7.18c-0.05,3.13,0.35,6.32,1.45,9.25
						c0.57,1.52,1.06,2.84,2.22,4.03c0.68,0.69,1.54,1.22,2.32,1.78c-1.73-1.58-3.08-4.24-3.59-6.83c1.27,1.78,3.23,3.02,4.96,4.32
						c0.42,0.53,0.82,1.09,1.11,1.68c0.67,1.35,0.21,2.34-0.19,3.6c0.02-0.03,0.04-0.05,0.06-0.08c-0.29,0.87-0.43,1.79-0.5,2.71
						c0.18-1,0.68-2,1.36-2.67c0.6-0.59,1.32-0.84,1.84-1.58c0.43-0.62,0.54-1.36,0.93-1.97c0.21,3.47-3.12,6.59-3.34,10.17
						c-0.25,4.08,1.61,6.87,4.77,9.05c-2.41-1.48-2.94-5.46-1.09-7.55c-0.11,1.23-0.32,2.96,0.3,4.14c0.86,1.64,2.91,2.04,3.99,3.46
						c0.97,1.28,0.94,2.72,1.28,4.21c0.63,2.77,1.78,4.4,4.54,5.17c-2.72-0.97-4.62-4.73-2.94-7.42c0.87,4.95,6.68,8.3,11.22,6.91
						c-3.59-0.87-5.19-2.94-6.01-6.66c-0.53-2.38-0.74-4.53-0.31-6.92c0.34-1.88,0.56-3.58,0.56-5.5c0,1.15,0.02,2.27,0.22,3.39
						c0.35,2.02,1.46,3.02,2.62,4.62c1.09,1.5,2.53,3.71,3.57,10.15c0.1-1.51-0.79-6.75-1.22-8.05c-0.59-1.76-1.82-3.22-2.64-4.59
						c4.3,2.7,7.24,10.87,5.33,15.53c2.22-3.35,0.94-8.33-0.35-11.76c-0.87-2.31-2.89-6.75-0.98-9.04
						c-0.07,4.7,5.01,11.49,9.98,10.87C423.25,135.63,420.88,134.39,419.53,131.98z"/>
				</g>
			</g>
		</g>
	</g>
</g>
</svg>
